<svg width="50" height="50" viewBox="0 0 50 50" fill="none" xmlns="http://www.w3.org/2000/svg">
<path d="M25 50C38.8071 50 50 38.8071 50 25C50 11.1929 38.8071 0 25 0C11.1929 0 0 11.1929 0 25C0 38.8071 11.1929 50 25 50Z" fill="#FBEED4"/>
<path d="M27.5 27H27V27.5V37H23V27.5V27H22.5H13V23H22.5H23V22.5V13H27V22.5V23H27.5H37V27H27.5ZM15.4482 47.571L15.448 47.5709C12.462 46.2832 9.86952 44.5374 7.66605 42.334C5.46259 40.1305 3.7168 37.538 2.42913 34.552L2.42904 34.5518C1.14391 31.5755 0.5 28.3932 0.5 25C0.5 21.6068 1.14391 18.4245 2.42904 15.4482L2.42913 15.448C3.7168 12.462 5.46259 9.86952 7.66605 7.66605C9.86951 5.4626 12.462 3.71597 15.448 2.42663C18.4244 1.14311 21.6067 0.5 25 0.5C28.3933 0.5 31.5756 1.14311 34.552 2.42663C37.538 3.71597 40.1305 5.4626 42.334 7.66605C44.5374 9.86952 46.2832 12.462 47.5709 15.448L47.571 15.4482C48.8561 18.4245 49.5 21.6068 49.5 25C49.5 28.3932 48.8561 31.5755 47.571 34.5518L47.5709 34.552C46.2832 37.538 44.5374 40.1305 42.334 42.334C40.1305 44.5374 37.538 46.2832 34.552 47.5709L34.5518 47.571C31.5755 48.8561 28.3932 49.5 25 49.5C21.6068 49.5 18.4245 48.8561 15.4482 47.571ZM25 45.5C30.7131 45.5 35.5703 43.5118 39.541 39.541C43.5118 35.5703 45.5 30.7131 45.5 25C45.5 19.2869 43.5118 14.4297 39.541 10.4589C35.5703 6.48821 30.7131 4.5 25 4.5C19.2869 4.5 14.4297 6.48821 10.4589 10.4589C6.48821 14.4297 4.5 19.2869 4.5 25C4.5 30.7131 6.48821 35.5703 10.4589 39.541C14.4297 43.5118 19.2869 45.5 25 45.5Z" fill="#EFB443" stroke="#EFB443"/>
</svg>
