<svg width="1273" height="1273" viewBox="0 0 1273 1273" fill="none" xmlns="http://www.w3.org/2000/svg">
<path d="M0 590H924.243L462.121 1006.41L0 590ZM1249.89 937.44C1265.3 961.73 1273 988.19 1273 1016.82C1273 1037.2 1269.15 1056.72 1261.45 1075.37C1253.74 1094.03 1242.43 1110.51 1227.51 1124.82C1212.59 1139.14 1195.5 1150.85 1176.24 1159.96C1156.99 1169.07 1135.57 1173.4 1111.98 1172.97C1088.39 1172.97 1066.25 1169.07 1045.55 1161.26C1024.85 1153.45 1006.8 1142.61 991.395 1128.73C975.991 1114.85 963.716 1098.58 954.569 1079.93C945.423 1061.28 940.85 1041.32 940.85 1020.07C940.85 993.178 948.312 968.02 963.234 944.597L1109.09 714.922L1249.89 937.44Z" fill="#4D94E7"/>
<path d="M172.537 552.88C155.497 552.88 140.857 549.28 128.617 542.08C116.377 534.88 107.017 523.96 100.537 509.32C94.0567 494.44 90.8167 475.72 90.8167 453.16C90.8167 430.36 94.1767 411.64 100.897 397C107.857 382.36 117.457 371.44 129.697 364.24C141.937 357.04 156.217 353.44 172.537 353.44C190.777 353.44 207.097 357.52 221.497 365.68C236.137 373.84 247.657 385.36 256.057 400.24C264.697 415.12 269.017 432.76 269.017 453.16C269.017 473.32 264.697 490.84 256.057 505.72C247.657 520.6 236.137 532.24 221.497 540.64C207.097 548.8 190.777 552.88 172.537 552.88ZM58.0567 550V282.88H114.217V395.56L110.617 452.8L111.697 510.4V550H58.0567ZM162.817 506.8C172.177 506.8 180.457 504.64 187.657 500.32C195.097 496 200.977 489.88 205.297 481.96C209.857 473.8 212.137 464.2 212.137 453.16C212.137 441.88 209.857 432.28 205.297 424.36C200.977 416.44 195.097 410.32 187.657 406C180.457 401.68 172.177 399.52 162.817 399.52C153.457 399.52 145.057 401.68 137.617 406C130.177 410.32 124.297 416.44 119.977 424.36C115.657 432.28 113.497 441.88 113.497 453.16C113.497 464.2 115.657 473.8 119.977 481.96C124.297 489.88 130.177 496 137.617 500.32C145.057 504.64 153.457 506.8 162.817 506.8ZM388.331 552.88C372.251 552.88 357.851 549.76 345.131 543.52C332.651 537.28 322.931 527.8 315.971 515.08C309.011 502.12 305.531 485.68 305.531 465.76V356.32H361.691V457.48C361.691 473.56 365.051 485.44 371.771 493.12C378.731 500.56 388.451 504.28 400.931 504.28C409.571 504.28 417.251 502.48 423.971 498.88C430.691 495.04 435.971 489.28 439.811 481.6C443.651 473.68 445.571 463.84 445.571 452.08V356.32H501.731V550H448.451V496.72L458.171 512.2C451.691 525.64 442.091 535.84 429.371 542.8C416.891 549.52 403.211 552.88 388.331 552.88ZM647.36 552.88C626.48 552.88 607.88 548.68 591.56 540.28C575.24 531.64 562.4 519.76 553.04 504.64C543.92 489.52 539.36 472.36 539.36 453.16C539.36 433.72 543.92 416.56 553.04 401.68C562.4 386.56 575.24 374.8 591.56 366.4C607.88 357.76 626.48 353.44 647.36 353.44C667.76 353.44 685.52 357.76 700.64 366.4C715.76 374.8 726.92 386.92 734.12 402.76L690.56 426.16C685.52 417.04 679.16 410.32 671.48 406C664.04 401.68 655.88 399.52 647 399.52C637.4 399.52 628.76 401.68 621.08 406C613.4 410.32 607.28 416.44 602.72 424.36C598.4 432.28 596.24 441.88 596.24 453.16C596.24 464.44 598.4 474.04 602.72 481.96C607.28 489.88 613.4 496 621.08 500.32C628.76 504.64 637.4 506.8 647 506.8C655.88 506.8 664.04 504.76 671.48 500.68C679.16 496.36 685.52 489.52 690.56 480.16L734.12 503.92C726.92 519.52 715.76 531.64 700.64 540.28C685.52 548.68 667.76 552.88 647.36 552.88ZM811.84 510.4L813.28 442L903.64 356.32H970.6L883.84 444.52L854.68 468.28L811.84 510.4ZM765.4 550V282.88H821.56V550H765.4ZM909.76 550L844.24 468.64L879.52 425.08L977.8 550H909.76ZM1003.06 550V356.32H1059.22V550H1003.06ZM1031.14 329.32C1020.82 329.32 1012.42 326.32 1005.94 320.32C999.457 314.32 996.217 306.88 996.217 298C996.217 289.12 999.457 281.68 1005.94 275.68C1012.42 269.68 1020.82 266.68 1031.14 266.68C1041.46 266.68 1049.86 269.56 1056.34 275.32C1062.82 280.84 1066.06 288.04 1066.06 296.92C1066.06 306.28 1062.82 314.08 1056.34 320.32C1050.1 326.32 1041.7 329.32 1031.14 329.32ZM1190.54 552.88C1167.74 552.88 1149.98 547.12 1137.26 535.6C1124.54 523.84 1118.18 506.44 1118.18 483.4V313.48H1174.34V482.68C1174.34 490.84 1176.5 497.2 1180.82 501.76C1185.14 506.08 1191.02 508.24 1198.46 508.24C1207.34 508.24 1214.9 505.84 1221.14 501.04L1236.26 540.64C1230.5 544.72 1223.54 547.84 1215.38 550C1207.46 551.92 1199.18 552.88 1190.54 552.88ZM1088.3 403.84V360.64H1222.58V403.84H1088.3Z" fill="#4D94E7"/>
</svg>
