<svg width="1288" height="911" viewBox="0 0 1288 911" fill="none" xmlns="http://www.w3.org/2000/svg">
<path d="M7 328H931.243L469.121 744.407L7 328ZM1256.89 675.44C1272.3 699.73 1280 726.19 1280 754.818C1280 775.204 1276.15 794.723 1268.45 813.375C1260.74 832.026 1249.43 848.509 1234.51 862.823C1219.59 877.137 1202.5 888.849 1183.24 897.958C1163.99 907.067 1142.57 911.404 1118.98 910.97C1095.39 910.97 1073.25 907.067 1052.55 899.259C1031.85 891.451 1013.8 880.607 998.395 866.727C982.991 852.847 970.716 836.581 961.569 817.929C952.423 799.278 947.85 779.325 947.85 758.071C947.85 731.178 955.312 706.02 970.234 682.597L1116.09 452.922L1256.89 675.44Z" fill="#4D94E7"/>
<path d="M122.537 301.88C105.497 301.88 90.8567 298.28 78.6167 291.08C66.3767 283.88 57.0167 272.96 50.5367 258.32C44.0567 243.44 40.8167 224.72 40.8167 202.16C40.8167 179.36 44.1767 160.64 50.8967 146C57.8567 131.36 67.4567 120.44 79.6967 113.24C91.9367 106.04 106.217 102.44 122.537 102.44C140.777 102.44 157.097 106.52 171.497 114.68C186.137 122.84 197.657 134.36 206.057 149.24C214.697 164.12 219.017 181.76 219.017 202.16C219.017 222.32 214.697 239.84 206.057 254.72C197.657 269.6 186.137 281.24 171.497 289.64C157.097 297.8 140.777 301.88 122.537 301.88ZM8.05672 299V31.88H64.2167V144.56L60.6167 201.8L61.6967 259.4V299H8.05672ZM112.817 255.8C122.177 255.8 130.457 253.64 137.657 249.32C145.097 245 150.977 238.88 155.297 230.96C159.857 222.8 162.137 213.2 162.137 202.16C162.137 190.88 159.857 181.28 155.297 173.36C150.977 165.44 145.097 159.32 137.657 155C130.457 150.68 122.177 148.52 112.817 148.52C103.457 148.52 95.0567 150.68 87.6167 155C80.1767 159.32 74.2967 165.44 69.9767 173.36C65.6567 181.28 63.4967 190.88 63.4967 202.16C63.4967 213.2 65.6567 222.8 69.9767 230.96C74.2967 238.88 80.1767 245 87.6167 249.32C95.0567 253.64 103.457 255.8 112.817 255.8ZM338.331 301.88C322.251 301.88 307.851 298.76 295.131 292.52C282.651 286.28 272.931 276.8 265.971 264.08C259.011 251.12 255.531 234.68 255.531 214.76V105.32H311.691V206.48C311.691 222.56 315.051 234.44 321.771 242.12C328.731 249.56 338.451 253.28 350.931 253.28C359.571 253.28 367.251 251.48 373.971 247.88C380.691 244.04 385.971 238.28 389.811 230.6C393.651 222.68 395.571 212.84 395.571 201.08V105.32H451.731V299H398.451V245.72L408.171 261.2C401.691 274.64 392.091 284.84 379.371 291.8C366.891 298.52 353.211 301.88 338.331 301.88ZM597.36 301.88C576.48 301.88 557.88 297.68 541.56 289.28C525.24 280.64 512.4 268.76 503.04 253.64C493.92 238.52 489.36 221.36 489.36 202.16C489.36 182.72 493.92 165.56 503.04 150.68C512.4 135.56 525.24 123.8 541.56 115.4C557.88 106.76 576.48 102.44 597.36 102.44C617.76 102.44 635.52 106.76 650.64 115.4C665.76 123.8 676.92 135.92 684.12 151.76L640.56 175.16C635.52 166.04 629.16 159.32 621.48 155C614.04 150.68 605.88 148.52 597 148.52C587.4 148.52 578.76 150.68 571.08 155C563.4 159.32 557.28 165.44 552.72 173.36C548.4 181.28 546.24 190.88 546.24 202.16C546.24 213.44 548.4 223.04 552.72 230.96C557.28 238.88 563.4 245 571.08 249.32C578.76 253.64 587.4 255.8 597 255.8C605.88 255.8 614.04 253.76 621.48 249.68C629.16 245.36 635.52 238.52 640.56 229.16L684.12 252.92C676.92 268.52 665.76 280.64 650.64 289.28C635.52 297.68 617.76 301.88 597.36 301.88ZM761.84 259.4L763.28 191L853.64 105.32H920.6L833.84 193.52L804.68 217.28L761.84 259.4ZM715.4 299V31.88H771.56V299H715.4ZM859.76 299L794.24 217.64L829.52 174.08L927.8 299H859.76ZM953.057 299V105.32H1009.22V299H953.057ZM981.137 78.32C970.817 78.32 962.417 75.32 955.937 69.32C949.457 63.32 946.217 55.88 946.217 47C946.217 38.12 949.457 30.68 955.937 24.68C962.417 18.68 970.817 15.68 981.137 15.68C991.457 15.68 999.857 18.56 1006.34 24.32C1012.82 29.84 1016.06 37.04 1016.06 45.92C1016.06 55.28 1012.82 63.08 1006.34 69.32C1000.1 75.32 991.697 78.32 981.137 78.32ZM1140.54 301.88C1117.74 301.88 1099.98 296.12 1087.26 284.6C1074.54 272.84 1068.18 255.44 1068.18 232.4V62.48H1124.34V231.68C1124.34 239.84 1126.5 246.2 1130.82 250.76C1135.14 255.08 1141.02 257.24 1148.46 257.24C1157.34 257.24 1164.9 254.84 1171.14 250.04L1186.26 289.64C1180.5 293.72 1173.54 296.84 1165.38 299C1157.46 300.92 1149.18 301.88 1140.54 301.88ZM1038.3 152.84V109.64H1172.58V152.84H1038.3Z" fill="#4D94E7"/>
</svg>
